<?xml version="1.0" encoding="UTF-8" standalone="no"?>
<svg width="38px" height="28px" viewBox="0 0 38 28" version="1.1" xmlns="http://www.w3.org/2000/svg" xmlns:xlink="http://www.w3.org/1999/xlink" xmlns:sketch="http://www.bohemiancoding.com/sketch/ns">
    <!-- Generator: Sketch 3.3.2 (12043) - http://www.bohemiancoding.com/sketch -->
    <title>Shape Copy 2</title>
    <desc>Created with Sketch.</desc>
    <defs></defs>
    <g id="Designs" stroke="none" stroke-width="1" fill="none" fill-rule="evenodd" sketch:type="MSPage">
        <g id="Homepage" sketch:type="MSArtboardGroup" transform="translate(-154.000000, -459.000000)" fill="#FFFFFF">
            <g id="Rectangle-40-+-search" sketch:type="MSLayerGroup" transform="translate(-57.000000, 148.000000)">
                <g id="search" sketch:type="MSShapeGroup">
                    <g id="all-types-icon" transform="translate(161.000000, 277.000000)">
                        <path d="M87.1018197,39.6785555 C87.1018197,40.3013512 86.8838412,40.8307276 86.4478842,41.2666846 L66.3627224,61.3518463 C65.9267654,61.7878033 65.3973891,62.0057818 64.7745934,62.0057818 C64.1517977,62.0057818 63.6224213,61.7878033 63.1864643,61.3518463 L51.5557544,49.7211364 C51.1197974,49.2851794 50.9018189,48.755803 50.9018189,48.1330073 C50.9018189,47.5102116 51.1197974,46.9808352 51.5557544,46.5448782 L54.7320125,43.3686201 C55.1679695,42.9326631 55.6973459,42.7146846 56.3201416,42.7146846 C56.9429373,42.7146846 57.4723137,42.9326631 57.9082706,43.3686201 L64.7745934,50.2582977 L80.0953679,34.9141683 C80.5313249,34.4782113 81.0607012,34.2602328 81.683497,34.2602328 C82.3062927,34.2602328 82.835669,34.4782113 83.271626,34.9141683 L86.4478842,38.0904264 C86.8838412,38.5263834 87.1018197,39.0557598 87.1018197,39.6785555 L87.1018197,39.6785555 Z" id="Shape-Copy-2"></path>
                    </g>
                </g>
            </g>
        </g>
    </g>
</svg>